<svg preserveAspectRatio="none" width="100%" height="100%" overflow="visible" style="display: block;" viewBox="0 0 79.7102 35.6406" fill="none" xmlns="http://www.w3.org/2000/svg">
<g id="Logo">
<path d="M66.6575 7.43752C69.6064 7.3224 70.9637 3.92231 70.9637 2.1956C70.9637 1.22976 70.5065 0 69.5292 0C68.3148 0 66.5261 1.85868 66.5261 3.97847C66.5261 5.39073 67.1862 5.55919 67.169 5.78942C67.1004 6.65137 65.246 7.49648 66.6575 7.43752ZM76.1813 10.1329C76.1813 12.3734 74.8897 14.1198 73.441 14.2293C74.3554 12.9799 74.6183 12.5503 74.8297 10.9836C75.3155 7.31679 74.3325 7.33363 73.8811 5.31773C73.8811 5.31773 74.4154 3.34393 73.4753 3.52363C69.5435 4.25081 72.2952 5.44407 66.6976 14.0412C65.7317 15.5461 64.4316 15.9981 64.3202 15.9813C62.36 15.6443 66.0203 12.4492 66.1575 11.3739C66.469 8.92558 65.6832 7.59194 65.0745 7.64529C63.643 7.78005 62.4257 8.65043 61.3142 8.58585C61.3142 8.58585 61.9857 7.58632 60.8027 7.58632C58.4311 7.58632 57.0767 11.7866 57.0767 12.9125C57.0767 13.4768 57.5339 13.9485 57.5339 14.1057C57.5339 14.7712 55.2822 18.5784 53.5478 18.5784C52.5448 18.5784 52.3991 17.4328 52.3991 17.2419C52.3991 16.4866 57.011 14.4707 57.011 10.773C57.011 9.83246 56.5938 8.58585 55.3108 8.58585C52.8963 8.58585 50.4961 10.9078 49.7017 12.4352C47.4986 16.5989 49.8217 17.1773 47.3158 18.0449C47.3158 18.0449 46.1642 18.3762 46.5643 17.1099C46.71 16.3519 47.2586 15.7314 47.4872 14.2293C47.8558 11.7136 46.9015 11.7838 45.8842 11.8484C43.6126 12 43.0497 16.3378 43.0497 17.5648V19.1034C43.0497 19.5667 42.0267 21.6387 41.0923 21.6668C40.658 21.6752 40.5352 20.1338 40.5352 19.7744C40.5352 18.7974 42.8382 16.7253 42.8382 13.7155C42.8382 12.7552 41.6438 12.6486 40.8723 12.6486C38.1606 12.6486 37.7549 19.6453 37.7549 19.6453C37.7549 22.5793 35.1147 23.2026 35.0861 23.2026C33.8088 23.2026 33.6174 20.1085 33.6174 20.1085C33.5517 18.5082 37.8892 16.5877 37.8892 8.0524C37.8892 7.15675 37.4863 5.47496 36.5234 5.64342C33.4145 6.18249 30.4971 16.773 30.7714 20.437C30.4971 21.1333 28.1454 24.2274 27.2568 24.2274C26.8196 24.2274 26.8425 23.868 26.8425 23.3682C26.8425 21.2821 29.4798 18.4969 29.4798 17.3065C29.4798 16.116 27.8997 14.3556 27.7768 14.3556C26.2681 14.3556 24.0622 19.3055 23.6565 20.9705C23.3164 22.3715 21.2848 25.2999 20.5333 25.0304C19.1875 24.5503 22.9021 20.1984 23.4507 18.9714C23.9251 17.9045 23.7679 17.1492 22.4335 16.919C18.0959 16.175 17.7616 22.3013 17.3502 23.5002C17.3073 23.6406 11.5153 30.9574 8.94082 30.9574C7.59213 30.9574 5.50908 30.6345 5.69195 26.0271C5.97483 18.9911 12.9412 10.453 14.5671 10.1806C15.5671 10.015 14.307 15.1839 12.4754 16.3715C9.48659 18.3032 5.89768 22.5007 8.67794 24.1656C12.9126 26.7037 15.9986 18.3706 15.9986 18.3706C21.0819 8.38089 17.4759 6.14599 15.5214 6.14599C11.0182 6.15441 0 19.2382 0 27.372C0 32.4258 3.38603 35.6406 6.38344 35.6406C12.2868 35.6406 15.8615 28.7702 17.6045 27.1754C18.0874 27.6555 19.1818 29.2335 20.8648 29.2335C22.825 29.2335 22.8392 26.5718 23.8679 25.9008C24.1279 26.5718 24.5594 28.3322 26.2196 28.3322C28.8912 28.3322 29.1427 25.2381 30.7828 24.3593C31.1714 26.3303 32.4373 27.1754 33.9145 27.1754C36.1576 27.1754 37.4263 25.1932 38.4321 23.4384C39.2779 24.0786 39.4465 24.904 40.7009 24.9995C43.4297 25.2129 44.8756 20.7094 45.0013 20.6448C45.0013 20.6448 45.8956 21.0266 46.1785 21.0266C47.6815 21.0266 48.8702 19.4487 49.0731 19.6453C49.1417 19.707 50.1789 21.4927 51.379 21.7735C56.388 22.9471 59.5112 15.8465 60.257 13.6509C60.2913 13.5582 61.4485 13.0865 62.02 12.8507C61.6142 13.985 60.3284 15.9981 60.7999 18.3116C61.0713 19.6481 62.02 20.5774 63.6516 20.3893C65.9461 20.1282 67.3462 16.4052 67.8462 16.3182C68.9292 16.1076 69.5064 18.1095 71.2351 18.1095C73.6068 18.1095 77.6157 15.0014 77.6157 12.3116C77.6157 11.9663 77.2671 9.518 76.1813 10.1357V10.1329ZM33.2688 16.0346L33.2602 16.0093V15.9897C33.2602 15.0266 34.7518 11.4749 35.2861 10.7478C35.4433 10.5484 35.6404 10.6242 35.7147 10.6748C35.809 10.7478 36.0605 10.9415 35.4004 12.8367C35.3918 12.8704 34.2003 16.2424 33.5259 16.2452C33.4716 16.2452 33.3373 16.2283 33.2688 16.0346ZM51.9219 14.1675C51.7419 13.606 53.0392 11.6855 53.8078 11.4525C54.1678 11.3542 54.3879 11.503 54.4621 11.6322C54.6907 12.0337 54.2621 12.8367 53.7135 13.4291C52.4905 14.5971 51.9591 14.2798 51.9191 14.1675H51.9219ZM71.0294 13.5835C70.7694 13.5835 70.2722 13.3084 69.9178 13.0781C71.278 10.3996 71.2494 9.87177 71.7409 9.48992C72.3866 9.91388 72.5209 10.0599 72.5209 11.0482C72.5209 12.2134 71.8352 13.5835 71.0294 13.5835Z" fill="var(--fill-0, #005696)"/>
<path d="M78.7815 15.8493C78.2615 15.8493 77.8557 15.4394 77.8557 14.9396C77.8557 14.4398 78.2672 14.0243 78.7844 14.0243C79.3016 14.0243 79.7102 14.4342 79.7102 14.934C79.7102 15.4338 79.2987 15.8465 78.7815 15.8465V15.8493ZM78.7844 14.1254C78.3158 14.1254 77.9614 14.4904 77.9614 14.9396C77.9614 15.3888 78.3129 15.7482 78.7787 15.7482C79.2444 15.7482 79.6016 15.3832 79.6016 14.9368C79.6016 14.4904 79.2501 14.1282 78.7844 14.1282V14.1254ZM79.013 15.0463L79.253 15.3916H78.9987L78.7872 15.08H78.6158V15.3916H78.3986V14.423H78.8358C79.073 14.423 79.2216 14.5409 79.2216 14.7431C79.2216 14.9031 79.1358 15.0014 79.0101 15.0463H79.013ZM78.8301 14.6139H78.6187V14.8975H78.8358C78.9472 14.8975 79.0044 14.8385 79.0044 14.7571C79.0044 14.6617 78.9387 14.6139 78.8301 14.6139Z" fill="var(--fill-0, #005696)"/>
</g>
</svg>
